<svg xmlns="http://www.w3.org/2000/svg" width="860" height="128" viewBox="0 0 860 128" role="img" aria-label="Generative AI Information Flow: Retrieval, Reasoning, Verification, and Action"><style>.mono{font-family:ui-monospace, SFMono-Regular, 'SF Mono', Menlo, Consolas, monospace;}@keyframes drawLine{from{stroke-dashoffset:1000}to{stroke-dashoffset:0}}@keyframes fadeIn{from{opacity:0}to{opacity:1}}@keyframes popNode{from{opacity:0;transform:scale(0.5)}to{opacity:1;transform:scale(1)}}.flow-primary{stroke-dasharray:1000;stroke-dashoffset:1000;animation:drawLine 1.6s cubic-bezier(.2,.8,.3,1) forwards}.flow-subtle{opacity:0;animation:fadeIn 1.2s ease-out 0.2s forwards}.flow-node{opacity:0;transform-origin:center;transform-box:fill-box;animation:popNode .6s ease-out forwards}.meta-text{opacity:0;animation:fadeIn .9s ease-out .4s forwards}</style><rect x="0.5" y="0.5" width="859" height="127" rx="6" fill="#080A0D" stroke="#161D27" stroke-width="1"/><path d="M 21 18 L 27 18 M 24 15 L 24 21" stroke="#161D27" stroke-width="1"/><path d="M 833 18 L 839 18 M 836 15 L 836 21" stroke="#161D27" stroke-width="1"/><path d="M 21 110 L 27 110 M 24 107 L 24 113" stroke="#161D27" stroke-width="1"/><path d="M 833 110 L 839 110 M 836 107 L 836 113" stroke="#161D27" stroke-width="1"/><text class="mono meta-text" x="42" y="21" font-size="9" fill="#485461" letter-spacing="1">SYS.ID // NEURAL_FLOW.01</text><text class="mono meta-text" x="818" y="21" font-size="9" fill="#485461" text-anchor="end" letter-spacing="1">STATUS: VERIFIED // LATENCY: NOMINAL</text><line x1="45" y1="60" x2="815" y2="60" stroke="#11202B" stroke-width="1" stroke-dasharray="3 6"/><path class="flow-subtle" d="M 130 60 C 200 32, 270 32, 340 60 C 410 88, 480 88, 550 60 C 620 32, 680 42, 740 60" fill="none" stroke="#11202B" stroke-width="1.2"/><path class="flow-subtle" d="M 60 74 C 95 74, 110 65, 130 60" fill="none" stroke="#1A2E3D" stroke-width="1"/><path class="flow-subtle" d="M 60 46 C 95 46, 110 55, 130 60" fill="none" stroke="#1A2E3D" stroke-width="1"/><path class="flow-subtle" d="M 340 60 C 410 36, 480 36, 550 60 C 480 84, 410 84, 340 60" fill="none" stroke="#1A2E3D" stroke-width="1" stroke-dasharray="2 4"/><path class="flow-primary" d="M 60 60 L 130 60 C 200 52, 270 68, 340 60 C 410 52, 480 52, 550 60 L 740 60 L 800 60" fill="none" stroke="#65D9FF" stroke-width="1.6" stroke-linecap="round"/><path class="meta-text" d="M 795 56 L 800 60 L 795 64" fill="none" stroke="#65D9FF" stroke-width="1.5" stroke-linecap="round"/><circle class="flow-node" cx="130" cy="60" r="6" fill="none" stroke="#65D9FF" stroke-width="1" stroke-opacity="0.35" style="animation-delay:0.5s"/><circle class="flow-node" cx="130" cy="60" r="2.8" fill="#65D9FF" style="animation-delay:0.5s"/><line class="flow-subtle" x1="130" y1="67" x2="130" y2="82" stroke="#161D27" stroke-width="1" stroke-dasharray="2 2"/><text class="mono meta-text" x="130" y="94" font-size="8.5" fill="#65D9FF" font-weight="600" text-anchor="middle" letter-spacing="0.5">01</text><text class="mono meta-text" x="130" y="107" font-size="9" fill="#8A949E" font-weight="500" text-anchor="middle" letter-spacing="1">RETRIEVAL</text><circle class="flow-node" cx="340" cy="60" r="6" fill="none" stroke="#65D9FF" stroke-width="1" stroke-opacity="0.35" style="animation-delay:0.8s"/><circle class="flow-node" cx="340" cy="60" r="2.8" fill="#65D9FF" style="animation-delay:0.8s"/><line class="flow-subtle" x1="340" y1="67" x2="340" y2="82" stroke="#161D27" stroke-width="1" stroke-dasharray="2 2"/><text class="mono meta-text" x="340" y="94" font-size="8.5" fill="#65D9FF" font-weight="600" text-anchor="middle" letter-spacing="0.5">02</text><text class="mono meta-text" x="340" y="107" font-size="9" fill="#8A949E" font-weight="500" text-anchor="middle" letter-spacing="1">REASONING</text><circle class="flow-node" cx="550" cy="60" r="6" fill="none" stroke="#65D9FF" stroke-width="1" stroke-opacity="0.35" style="animation-delay:1.1s"/><circle class="flow-node" cx="550" cy="60" r="2.8" fill="#65D9FF" style="animation-delay:1.1s"/><line class="flow-subtle" x1="550" y1="67" x2="550" y2="82" stroke="#161D27" stroke-width="1" stroke-dasharray="2 2"/><text class="mono meta-text" x="550" y="94" font-size="8.5" fill="#65D9FF" font-weight="600" text-anchor="middle" letter-spacing="0.5">03</text><text class="mono meta-text" x="550" y="107" font-size="9" fill="#8A949E" font-weight="500" text-anchor="middle" letter-spacing="1">VERIFICATION</text><circle class="flow-node" cx="740" cy="60" r="6" fill="none" stroke="#65D9FF" stroke-width="1" stroke-opacity="0.35" style="animation-delay:1.4s"/><circle class="flow-node" cx="740" cy="60" r="2.8" fill="#65D9FF" style="animation-delay:1.4s"/><line class="flow-subtle" x1="740" y1="67" x2="740" y2="82" stroke="#161D27" stroke-width="1" stroke-dasharray="2 2"/><text class="mono meta-text" x="740" y="94" font-size="8.5" fill="#65D9FF" font-weight="600" text-anchor="middle" letter-spacing="0.5">04</text><text class="mono meta-text" x="740" y="107" font-size="9" fill="#8A949E" font-weight="500" text-anchor="middle" letter-spacing="1">ACTION</text></svg>
