<svg xmlns="http://www.w3.org/2000/svg" width="560" height="392" viewBox="0 0 560 392" role="img" aria-label="AI engineer profile card"><style>.mono{font-family:ui-monospace, SFMono-Regular, 'SF Mono', Menlo, Consolas, monospace;}@keyframes slidein{from{opacity:0;transform:translateX(-9px)}to{opacity:1;transform:translateX(0)}}.row{opacity:0;animation:slidein .42s ease-out forwards}</style><rect x="0.5" y="0.5" width="559" height="391" rx="10" fill="#0d1117" stroke="#21262d"/><line x1="0" y1="34" x2="560" y2="34" stroke="#21262d"/><circle cx="22" cy="17.0" r="5.5" fill="#ff5f56"/><circle cx="40" cy="17.0" r="5.5" fill="#ffbd2e"/><circle cx="58" cy="17.0" r="5.5" fill="#27c93f"/><text class="mono" x="82" y="21.0" font-size="12" fill="#7d8590">neofetch</text><text class="mono row" x="22" y="64" font-size="13.5" style="animation-delay:0.150s"><tspan fill="#39d353" font-weight="600">dheeraj</tspan><tspan fill="#7d8590">@</tspan><tspan fill="#58a6ff" font-weight="600">github</tspan></text><line class="row" x1="22" y1="72" x2="538" y2="72" stroke="#30363d" style="animation-delay:0.205s"/><g class="row" style="animation-delay:0.260s"><text class="mono" x="22" y="89" font-size="12" fill="#39d353" font-weight="600">Name</text><text class="mono" x="93" y="89" font-size="12" fill="#7d8590">:</text><text class="mono" x="108" y="89" font-size="12" fill="#c9d1d9">Dheeraj Gowd</text></g><g class="row" style="animation-delay:0.315s"><text class="mono" x="22" y="106" font-size="12" fill="#39d353" font-weight="600">Role</text><text class="mono" x="93" y="106" font-size="12" fill="#7d8590">:</text><text class="mono" x="108" y="106" font-size="12" fill="#c9d1d9">AI / GenAI Engineer</text></g><g class="row" style="animation-delay:0.370s"><text class="mono" x="22" y="123" font-size="12" fill="#39d353" font-weight="600">Focus</text><text class="mono" x="93" y="123" font-size="12" fill="#7d8590">:</text><text class="mono" x="108" y="123" font-size="12" fill="#c9d1d9">LLM apps · RAG · Agentic AI</text></g><line class="row" x1="22" y1="140" x2="538" y2="140" stroke="#30363d" style="animation-delay:0.425s"/><g class="row" style="animation-delay:0.480s"><text class="mono" x="22" y="149" font-size="12" fill="#39d353" font-weight="600">Now</text><text class="mono" x="93" y="149" font-size="12" fill="#7d8590">:</text><text class="mono" x="108" y="149" font-size="12" fill="#c9d1d9">Enterprise Agentic RAG</text></g><g class="row" style="animation-delay:0.535s"><text class="mono" x="108" y="166" font-size="12" fill="#7d8590">Verified Research Agent</text></g><g class="row" style="animation-delay:0.590s"><text class="mono" x="108" y="183" font-size="12" fill="#7d8590">NEXORA 2026</text></g><line class="row" x1="22" y1="200" x2="538" y2="200" stroke="#30363d" style="animation-delay:0.645s"/><g class="row" style="animation-delay:0.700s"><text class="mono" x="22" y="209" font-size="12" fill="#39d353" font-weight="600">Stack</text><text class="mono" x="93" y="209" font-size="12" fill="#7d8590">:</text><text class="mono" x="108" y="209" font-size="12" fill="#c9d1d9">Python · FastAPI · LangChain</text></g><g class="row" style="animation-delay:0.755s"><text class="mono" x="108" y="226" font-size="12" fill="#7d8590">LangGraph · Embeddings · Vector Search</text></g><g class="row" style="animation-delay:0.810s"><text class="mono" x="108" y="243" font-size="12" fill="#7d8590">Qdrant · ChromaDB · GitHub Actions</text></g><line class="row" x1="22" y1="260" x2="538" y2="260" stroke="#30363d" style="animation-delay:0.865s"/><g class="row" style="animation-delay:0.920s"><text class="mono" x="22" y="269" font-size="12" fill="#39d353" font-weight="600">Build</text><text class="mono" x="93" y="269" font-size="12" fill="#7d8590">:</text><text class="mono" x="108" y="269" font-size="12" fill="#c9d1d9">Retrieval pipelines · tool calling</text></g><g class="row" style="animation-delay:0.975s"><text class="mono" x="108" y="286" font-size="12" fill="#7d8590">evaluation · guardrails · automation</text></g><line class="row" x1="22" y1="303" x2="538" y2="303" stroke="#30363d" style="animation-delay:1.030s"/><g class="row" style="animation-delay:1.085s"><text class="mono" x="22" y="312" font-size="12" fill="#39d353" font-weight="600">Links</text><text class="mono" x="93" y="312" font-size="12" fill="#7d8590">:</text><text class="mono" x="108" y="312" font-size="12" fill="#c9d1d9">github.com/dheerajgowd-18</text></g><g class="row" style="animation-delay:1.140s"><text class="mono" x="108" y="329" font-size="12" fill="#7d8590">agentic-rag · lpdg-nexora-2026</text></g><rect class="row" x="22" y="356" width="16" height="10" rx="2" fill="#161b22" style="animation-delay:1.195s"/><rect class="row" x="42" y="356" width="16" height="10" rx="2" fill="#0e4429" style="animation-delay:1.217s"/><rect class="row" x="62" y="356" width="16" height="10" rx="2" fill="#006d32" style="animation-delay:1.239s"/><rect class="row" x="82" y="356" width="16" height="10" rx="2" fill="#26a641" style="animation-delay:1.261s"/><rect class="row" x="102" y="356" width="16" height="10" rx="2" fill="#39d353" style="animation-delay:1.283s"/><rect class="row" x="122" y="356" width="16" height="10" rx="2" fill="#69f0a0" style="animation-delay:1.305s"/><rect class="row" x="142" y="356" width="16" height="10" rx="2" fill="#58a6ff" style="animation-delay:1.327s"/><rect class="row" x="162" y="356" width="16" height="10" rx="2" fill="#c9d1d9" style="animation-delay:1.349s"/></svg>
